<?xml version="1.0" encoding="utf-8"?>
<!-- Generator: Adobe Illustrator 25.0.0, SVG Export Plug-In . SVG Version: 6.00 Build 0)  -->
<svg version="1.1" xmlns="http://www.w3.org/2000/svg" xmlns:xlink="http://www.w3.org/1999/xlink" x="0px" y="0px"
	 viewBox="0 0 390 220" style="enable-background:new 0 0 390 220;" xml:space="preserve">
<style type="text/css">
	.st0{fill:#00AEEF;stroke:#00AEEF;stroke-width:2;stroke-miterlimit:10;}
</style>
<g id="Layer_1">
	<path class="st0" d="M114.33,43.72c6.57,2.11,97.55,30.05,148.73-21.83c2.18-2.21,5.89-0.21,5.24,2.82
		c-7.74,36.24-40.38,149.74-148.75,174.27c-0.23,0.05-0.47,0.08-0.71,0.08h-1.52c-3.06,0-4.28-3.95-1.76-5.67l0.29-0.2
		c0.31-0.21,0.66-0.37,1.02-0.46c7.02-1.7,80.91-21.99,127.46-131.72c1.04-2.45-1.29-5-3.82-4.17
		c-19.08,6.25-76.77,21.82-125.93,0.59c-0.71-0.31-1.29-0.88-1.61-1.59l-3.85-8.55c-1.26-2.81,1.89-5.55,4.49-3.9l0,0
		C113.85,43.53,114.08,43.64,114.33,43.72z"/>
	<path class="st0" d="M171.96,126.78l90.2-22.88c0.28-0.07,0.57-0.1,0.86-0.08l11.81,0.69c3.16,0.19,3.66,4.64,0.61,5.52
		l-112.08,32.3c-2.79,0.8-4.83-2.63-2.78-4.69l10.07-10.11C171.02,127.16,171.47,126.9,171.96,126.78z"/>
	<path class="st0" d="M188.96,91.86l90.02-23.58c0.28-0.07,0.57-0.1,0.86-0.09l11.82,0.6c3.16,0.16,3.69,4.61,0.66,5.51
		l-111.83,33.17c-2.79,0.83-4.85-2.6-2.81-4.67l9.99-10.19C188.02,92.25,188.47,91.99,188.96,91.86z"/>
</g>
<g id="Layer_2">
</g>
</svg>
